<mxfile host="app.diagrams.net" modified="2022-05-09T04:50:56.288Z" agent="5.0 (Windows NT 10.0; Win64; x64) AppleWebKit/537.36 (KHTML, like Gecko) Chrome/101.0.4951.54 Safari/537.36" etag="S7z3VQLf2UKStZ4iEuFI" version="18.0.2" type="github">
  <diagram id="l5MQT0l0J_C5blnGxe-R" name="Page-1">
    <mxGraphModel dx="1574" dy="1036" grid="1" gridSize="15" guides="1" tooltips="1" connect="1" arrows="1" fold="1" page="1" pageScale="1" pageWidth="850" pageHeight="1100" math="0" shadow="0">
      <root>
        <mxCell id="0" />
        <mxCell id="1" parent="0" />
        <mxCell id="cHPvtZxhLTsQ24sQFhtI-3" value="" style="edgeStyle=orthogonalEdgeStyle;rounded=0;orthogonalLoop=1;jettySize=auto;html=1;" parent="1" source="cHPvtZxhLTsQ24sQFhtI-1" target="cHPvtZxhLTsQ24sQFhtI-2" edge="1">
          <mxGeometry relative="1" as="geometry" />
        </mxCell>
        <mxCell id="cHPvtZxhLTsQ24sQFhtI-6" value="" style="edgeStyle=orthogonalEdgeStyle;rounded=0;orthogonalLoop=1;jettySize=auto;html=1;" parent="1" source="cHPvtZxhLTsQ24sQFhtI-1" target="cHPvtZxhLTsQ24sQFhtI-5" edge="1">
          <mxGeometry relative="1" as="geometry" />
        </mxCell>
        <mxCell id="cHPvtZxhLTsQ24sQFhtI-9" value="" style="edgeStyle=orthogonalEdgeStyle;rounded=0;orthogonalLoop=1;jettySize=auto;html=1;strokeWidth=5;" parent="1" source="cHPvtZxhLTsQ24sQFhtI-1" target="cHPvtZxhLTsQ24sQFhtI-8" edge="1">
          <mxGeometry relative="1" as="geometry" />
        </mxCell>
        <mxCell id="cHPvtZxhLTsQ24sQFhtI-14" style="edgeStyle=orthogonalEdgeStyle;rounded=0;orthogonalLoop=1;jettySize=auto;html=1;exitX=1;exitY=0.5;exitDx=0;exitDy=0;entryX=0.5;entryY=0;entryDx=0;entryDy=0;" parent="1" source="cHPvtZxhLTsQ24sQFhtI-1" target="cHPvtZxhLTsQ24sQFhtI-13" edge="1">
          <mxGeometry relative="1" as="geometry" />
        </mxCell>
        <mxCell id="l-d240GoZ30HzUqu10cJ-5" style="edgeStyle=orthogonalEdgeStyle;orthogonalLoop=1;jettySize=auto;html=1;exitX=1;exitY=0;exitDx=0;exitDy=0;entryX=0.5;entryY=0;entryDx=0;entryDy=0;strokeWidth=1;rounded=0;" edge="1" parent="1" source="cHPvtZxhLTsQ24sQFhtI-1" target="l-d240GoZ30HzUqu10cJ-4">
          <mxGeometry relative="1" as="geometry">
            <Array as="points">
              <mxPoint x="435" y="40" />
              <mxPoint x="435" y="15" />
              <mxPoint x="105" y="15" />
            </Array>
          </mxGeometry>
        </mxCell>
        <mxCell id="cHPvtZxhLTsQ24sQFhtI-1" value="BA economics 2023" style="rounded=0;whiteSpace=wrap;html=1;fillColor=#60a917;strokeColor=#2D7600;fontColor=#ffffff;" parent="1" vertex="1">
          <mxGeometry x="350" y="40" width="120" height="60" as="geometry" />
        </mxCell>
        <mxCell id="cHPvtZxhLTsQ24sQFhtI-20" style="edgeStyle=orthogonalEdgeStyle;rounded=0;orthogonalLoop=1;jettySize=auto;html=1;" parent="1" source="cHPvtZxhLTsQ24sQFhtI-2" target="cHPvtZxhLTsQ24sQFhtI-19" edge="1">
          <mxGeometry relative="1" as="geometry" />
        </mxCell>
        <mxCell id="cHPvtZxhLTsQ24sQFhtI-2" value="DUET,MSQE" style="whiteSpace=wrap;html=1;rounded=0;fillColor=#f8cecc;strokeColor=#b85450;" parent="1" vertex="1">
          <mxGeometry x="200" y="160" width="120" height="60" as="geometry" />
        </mxCell>
        <mxCell id="cHPvtZxhLTsQ24sQFhtI-7" style="edgeStyle=orthogonalEdgeStyle;rounded=0;orthogonalLoop=1;jettySize=auto;html=1;exitX=0;exitY=0.5;exitDx=0;exitDy=0;entryX=1;entryY=0.5;entryDx=0;entryDy=0;" parent="1" source="cHPvtZxhLTsQ24sQFhtI-5" target="cHPvtZxhLTsQ24sQFhtI-2" edge="1">
          <mxGeometry relative="1" as="geometry" />
        </mxCell>
        <mxCell id="cHPvtZxhLTsQ24sQFhtI-5" value="GATE XH C1" style="whiteSpace=wrap;html=1;rounded=0;fillColor=#d5e8d4;strokeColor=#82b366;" parent="1" vertex="1">
          <mxGeometry x="500" y="160" width="120" height="60" as="geometry" />
        </mxCell>
        <mxCell id="cHPvtZxhLTsQ24sQFhtI-12" style="edgeStyle=orthogonalEdgeStyle;rounded=0;orthogonalLoop=1;jettySize=auto;html=1;exitX=0.5;exitY=1;exitDx=0;exitDy=0;entryX=0.5;entryY=0;entryDx=0;entryDy=0;" parent="1" source="cHPvtZxhLTsQ24sQFhtI-8" target="cHPvtZxhLTsQ24sQFhtI-10" edge="1">
          <mxGeometry relative="1" as="geometry" />
        </mxCell>
        <mxCell id="cHPvtZxhLTsQ24sQFhtI-26" style="edgeStyle=orthogonalEdgeStyle;rounded=0;orthogonalLoop=1;jettySize=auto;html=1;entryX=0.5;entryY=0;entryDx=0;entryDy=0;" parent="1" source="cHPvtZxhLTsQ24sQFhtI-8" target="cHPvtZxhLTsQ24sQFhtI-25" edge="1">
          <mxGeometry relative="1" as="geometry" />
        </mxCell>
        <mxCell id="cHPvtZxhLTsQ24sQFhtI-8" value="MA (ECO) from ignou" style="whiteSpace=wrap;html=1;rounded=0;fillColor=#d5e8d4;strokeColor=#82b366;" parent="1" vertex="1">
          <mxGeometry x="350" y="230" width="120" height="60" as="geometry" />
        </mxCell>
        <mxCell id="cHPvtZxhLTsQ24sQFhtI-17" style="edgeStyle=orthogonalEdgeStyle;rounded=0;orthogonalLoop=1;jettySize=auto;html=1;exitX=1;exitY=0.5;exitDx=0;exitDy=0;" parent="1" source="cHPvtZxhLTsQ24sQFhtI-10" target="cHPvtZxhLTsQ24sQFhtI-15" edge="1">
          <mxGeometry relative="1" as="geometry" />
        </mxCell>
        <mxCell id="cHPvtZxhLTsQ24sQFhtI-10" value="IES" style="rounded=0;whiteSpace=wrap;html=1;fillColor=#d5e8d4;strokeColor=#82b366;" parent="1" vertex="1">
          <mxGeometry x="350" y="360" width="120" height="60" as="geometry" />
        </mxCell>
        <mxCell id="cHPvtZxhLTsQ24sQFhtI-18" style="edgeStyle=orthogonalEdgeStyle;rounded=0;orthogonalLoop=1;jettySize=auto;html=1;exitX=0.5;exitY=1;exitDx=0;exitDy=0;" parent="1" source="cHPvtZxhLTsQ24sQFhtI-13" target="cHPvtZxhLTsQ24sQFhtI-15" edge="1">
          <mxGeometry relative="1" as="geometry" />
        </mxCell>
        <mxCell id="cHPvtZxhLTsQ24sQFhtI-13" value="RBI grade B" style="rounded=0;whiteSpace=wrap;html=1;fillColor=#d5e8d4;strokeColor=#82b366;" parent="1" vertex="1">
          <mxGeometry x="660" y="160" width="120" height="60" as="geometry" />
        </mxCell>
        <mxCell id="cHPvtZxhLTsQ24sQFhtI-15" value="ABROAD Study&lt;br&gt;" style="rounded=0;whiteSpace=wrap;html=1;" parent="1" vertex="1">
          <mxGeometry x="660" y="360" width="120" height="60" as="geometry" />
        </mxCell>
        <mxCell id="cHPvtZxhLTsQ24sQFhtI-22" style="edgeStyle=orthogonalEdgeStyle;rounded=0;orthogonalLoop=1;jettySize=auto;html=1;exitX=0.5;exitY=1;exitDx=0;exitDy=0;entryX=-0.008;entryY=0.617;entryDx=0;entryDy=0;entryPerimeter=0;" parent="1" source="cHPvtZxhLTsQ24sQFhtI-19" target="cHPvtZxhLTsQ24sQFhtI-10" edge="1">
          <mxGeometry relative="1" as="geometry" />
        </mxCell>
        <mxCell id="cHPvtZxhLTsQ24sQFhtI-24" style="edgeStyle=orthogonalEdgeStyle;rounded=0;orthogonalLoop=1;jettySize=auto;html=1;exitX=0;exitY=0.5;exitDx=0;exitDy=0;entryX=0.5;entryY=0;entryDx=0;entryDy=0;" parent="1" source="cHPvtZxhLTsQ24sQFhtI-19" target="cHPvtZxhLTsQ24sQFhtI-23" edge="1">
          <mxGeometry relative="1" as="geometry" />
        </mxCell>
        <mxCell id="cHPvtZxhLTsQ24sQFhtI-27" style="edgeStyle=orthogonalEdgeStyle;rounded=0;orthogonalLoop=1;jettySize=auto;html=1;" parent="1" source="cHPvtZxhLTsQ24sQFhtI-19" edge="1">
          <mxGeometry relative="1" as="geometry">
            <mxPoint x="570" y="420" as="targetPoint" />
          </mxGeometry>
        </mxCell>
        <mxCell id="cHPvtZxhLTsQ24sQFhtI-19" value="MA ( tier1)" style="rounded=0;whiteSpace=wrap;html=1;fillColor=#f8cecc;strokeColor=#b85450;" parent="1" vertex="1">
          <mxGeometry x="200" y="280" width="120" height="60" as="geometry" />
        </mxCell>
        <mxCell id="cHPvtZxhLTsQ24sQFhtI-23" value="Private Job" style="rounded=0;whiteSpace=wrap;html=1;fillColor=#f8cecc;strokeColor=#b85450;" parent="1" vertex="1">
          <mxGeometry x="100" y="400" width="120" height="60" as="geometry" />
        </mxCell>
        <mxCell id="cHPvtZxhLTsQ24sQFhtI-25" value="NET" style="rounded=0;whiteSpace=wrap;html=1;fillColor=#f8cecc;strokeColor=#b85450;" parent="1" vertex="1">
          <mxGeometry x="510" y="420" width="120" height="60" as="geometry" />
        </mxCell>
        <mxCell id="cHPvtZxhLTsQ24sQFhtI-30" value="" style="edgeStyle=orthogonalEdgeStyle;rounded=0;orthogonalLoop=1;jettySize=auto;html=1;" parent="1" source="cHPvtZxhLTsQ24sQFhtI-28" target="cHPvtZxhLTsQ24sQFhtI-29" edge="1">
          <mxGeometry relative="1" as="geometry" />
        </mxCell>
        <mxCell id="cHPvtZxhLTsQ24sQFhtI-31" value="" style="edgeStyle=orthogonalEdgeStyle;rounded=0;orthogonalLoop=1;jettySize=auto;html=1;strokeWidth=5;" parent="1" source="cHPvtZxhLTsQ24sQFhtI-28" target="cHPvtZxhLTsQ24sQFhtI-29" edge="1">
          <mxGeometry relative="1" as="geometry" />
        </mxCell>
        <mxCell id="l-d240GoZ30HzUqu10cJ-1" style="edgeStyle=orthogonalEdgeStyle;curved=1;orthogonalLoop=1;jettySize=auto;html=1;entryX=0.5;entryY=0;entryDx=0;entryDy=0;strokeWidth=1;" edge="1" parent="1" source="cHPvtZxhLTsQ24sQFhtI-28" target="cHPvtZxhLTsQ24sQFhtI-43">
          <mxGeometry relative="1" as="geometry" />
        </mxCell>
        <mxCell id="cHPvtZxhLTsQ24sQFhtI-28" value="RELEVEL FrontEnd test" style="rounded=0;whiteSpace=wrap;html=1;fillColor=#008a00;strokeColor=#005700;fontColor=#ffffff;" parent="1" vertex="1">
          <mxGeometry x="315" y="580" width="120" height="60" as="geometry" />
        </mxCell>
        <mxCell id="cHPvtZxhLTsQ24sQFhtI-36" style="edgeStyle=orthogonalEdgeStyle;rounded=0;orthogonalLoop=1;jettySize=auto;html=1;entryX=0;entryY=0.5;entryDx=0;entryDy=0;strokeWidth=5;" parent="1" source="cHPvtZxhLTsQ24sQFhtI-29" target="cHPvtZxhLTsQ24sQFhtI-34" edge="1">
          <mxGeometry relative="1" as="geometry">
            <Array as="points">
              <mxPoint x="265" y="805" />
            </Array>
          </mxGeometry>
        </mxCell>
        <mxCell id="cHPvtZxhLTsQ24sQFhtI-39" style="edgeStyle=orthogonalEdgeStyle;rounded=0;orthogonalLoop=1;jettySize=auto;html=1;entryX=0;entryY=0.5;entryDx=0;entryDy=0;strokeWidth=4;" parent="1" source="cHPvtZxhLTsQ24sQFhtI-29" target="cHPvtZxhLTsQ24sQFhtI-38" edge="1">
          <mxGeometry relative="1" as="geometry" />
        </mxCell>
        <mxCell id="cHPvtZxhLTsQ24sQFhtI-29" value="Professional Programmer" style="rounded=0;whiteSpace=wrap;html=1;fillColor=#d5e8d4;strokeColor=#82b366;" parent="1" vertex="1">
          <mxGeometry x="220" y="685" width="120" height="60" as="geometry" />
        </mxCell>
        <mxCell id="cHPvtZxhLTsQ24sQFhtI-37" style="edgeStyle=orthogonalEdgeStyle;rounded=0;orthogonalLoop=1;jettySize=auto;html=1;entryX=1;entryY=0.5;entryDx=0;entryDy=0;" parent="1" source="cHPvtZxhLTsQ24sQFhtI-32" target="cHPvtZxhLTsQ24sQFhtI-34" edge="1">
          <mxGeometry relative="1" as="geometry" />
        </mxCell>
        <mxCell id="cHPvtZxhLTsQ24sQFhtI-42" style="edgeStyle=orthogonalEdgeStyle;rounded=0;orthogonalLoop=1;jettySize=auto;html=1;entryX=0.5;entryY=0;entryDx=0;entryDy=0;" parent="1" source="cHPvtZxhLTsQ24sQFhtI-32" target="cHPvtZxhLTsQ24sQFhtI-41" edge="1">
          <mxGeometry relative="1" as="geometry">
            <Array as="points">
              <mxPoint x="585" y="715" />
            </Array>
          </mxGeometry>
        </mxCell>
        <mxCell id="cHPvtZxhLTsQ24sQFhtI-32" value="Freelance Income" style="rounded=0;whiteSpace=wrap;html=1;fillColor=#d5e8d4;strokeColor=#82b366;" parent="1" vertex="1">
          <mxGeometry x="405" y="685" width="120" height="60" as="geometry" />
        </mxCell>
        <mxCell id="cHPvtZxhLTsQ24sQFhtI-35" style="edgeStyle=orthogonalEdgeStyle;rounded=0;orthogonalLoop=1;jettySize=auto;html=1;entryX=0;entryY=0.5;entryDx=0;entryDy=0;" parent="1" source="cHPvtZxhLTsQ24sQFhtI-34" target="cHPvtZxhLTsQ24sQFhtI-2" edge="1">
          <mxGeometry relative="1" as="geometry">
            <Array as="points">
              <mxPoint x="375" y="855" />
              <mxPoint x="90" y="855" />
              <mxPoint x="90" y="190" />
            </Array>
          </mxGeometry>
        </mxCell>
        <mxCell id="l-d240GoZ30HzUqu10cJ-6" style="edgeStyle=orthogonalEdgeStyle;rounded=0;orthogonalLoop=1;jettySize=auto;html=1;exitX=0;exitY=0.75;exitDx=0;exitDy=0;strokeWidth=1;" edge="1" parent="1" source="cHPvtZxhLTsQ24sQFhtI-34">
          <mxGeometry relative="1" as="geometry">
            <mxPoint x="60" y="165" as="targetPoint" />
          </mxGeometry>
        </mxCell>
        <mxCell id="cHPvtZxhLTsQ24sQFhtI-34" value="Money Available&lt;br&gt;" style="rounded=0;whiteSpace=wrap;html=1;fillColor=#d5e8d4;strokeColor=#82b366;strokeWidth=7;perimeterSpacing=0;sketch=0;shadow=1;glass=0;" parent="1" vertex="1">
          <mxGeometry x="315" y="775" width="120" height="60" as="geometry" />
        </mxCell>
        <mxCell id="cHPvtZxhLTsQ24sQFhtI-50" value="" style="edgeStyle=orthogonalEdgeStyle;rounded=0;orthogonalLoop=1;jettySize=auto;html=1;" parent="1" source="cHPvtZxhLTsQ24sQFhtI-38" target="cHPvtZxhLTsQ24sQFhtI-41" edge="1">
          <mxGeometry relative="1" as="geometry" />
        </mxCell>
        <mxCell id="cHPvtZxhLTsQ24sQFhtI-53" value="" style="edgeStyle=orthogonalEdgeStyle;rounded=0;orthogonalLoop=1;jettySize=auto;html=1;" parent="1" source="cHPvtZxhLTsQ24sQFhtI-38" target="cHPvtZxhLTsQ24sQFhtI-34" edge="1">
          <mxGeometry relative="1" as="geometry" />
        </mxCell>
        <mxCell id="l-d240GoZ30HzUqu10cJ-8" style="edgeStyle=orthogonalEdgeStyle;rounded=0;orthogonalLoop=1;jettySize=auto;html=1;strokeWidth=1;" edge="1" parent="1" source="cHPvtZxhLTsQ24sQFhtI-38" target="cHPvtZxhLTsQ24sQFhtI-23">
          <mxGeometry relative="1" as="geometry">
            <mxPoint x="150" y="467" as="targetPoint" />
            <Array as="points">
              <mxPoint x="150" y="910" />
            </Array>
          </mxGeometry>
        </mxCell>
        <mxCell id="cHPvtZxhLTsQ24sQFhtI-38" value="Lead developer ( 2-3 years)" style="rounded=0;whiteSpace=wrap;html=1;fillColor=#d5e8d4;strokeColor=#82b366;" parent="1" vertex="1">
          <mxGeometry x="310" y="880" width="165" height="60" as="geometry" />
        </mxCell>
        <mxCell id="cHPvtZxhLTsQ24sQFhtI-41" value="Agency and other business" style="rounded=0;whiteSpace=wrap;html=1;fillColor=#1ba1e2;fontColor=#ffffff;strokeColor=#006EAF;" parent="1" vertex="1">
          <mxGeometry x="525" y="880" width="120" height="60" as="geometry" />
        </mxCell>
        <mxCell id="cHPvtZxhLTsQ24sQFhtI-45" style="edgeStyle=orthogonalEdgeStyle;rounded=0;orthogonalLoop=1;jettySize=auto;html=1;exitX=0;exitY=1;exitDx=0;exitDy=0;entryX=1;entryY=0;entryDx=0;entryDy=0;strokeWidth=4;" parent="1" source="cHPvtZxhLTsQ24sQFhtI-43" target="cHPvtZxhLTsQ24sQFhtI-32" edge="1">
          <mxGeometry relative="1" as="geometry">
            <Array as="points">
              <mxPoint x="607" y="595" />
              <mxPoint x="525" y="595" />
            </Array>
          </mxGeometry>
        </mxCell>
        <mxCell id="cHPvtZxhLTsQ24sQFhtI-43" value="Coding Educator" style="ellipse;whiteSpace=wrap;html=1;aspect=fixed;fillColor=#d5e8d4;strokeColor=#82b366;" parent="1" vertex="1">
          <mxGeometry x="595" y="550" width="80" height="80" as="geometry" />
        </mxCell>
        <mxCell id="cHPvtZxhLTsQ24sQFhtI-48" style="edgeStyle=orthogonalEdgeStyle;rounded=0;orthogonalLoop=1;jettySize=auto;html=1;exitX=0;exitY=0.5;exitDx=0;exitDy=0;entryX=1;entryY=0.25;entryDx=0;entryDy=0;strokeWidth=4;" parent="1" source="cHPvtZxhLTsQ24sQFhtI-46" target="cHPvtZxhLTsQ24sQFhtI-32" edge="1">
          <mxGeometry relative="1" as="geometry">
            <Array as="points">
              <mxPoint x="640" y="680" />
              <mxPoint x="640" y="700" />
            </Array>
          </mxGeometry>
        </mxCell>
        <mxCell id="cHPvtZxhLTsQ24sQFhtI-46" value="Software services&lt;br&gt;" style="ellipse;whiteSpace=wrap;html=1;aspect=fixed;fillColor=#f8cecc;strokeColor=#b85450;" parent="1" vertex="1">
          <mxGeometry x="675" y="640" width="80" height="80" as="geometry" />
        </mxCell>
        <mxCell id="cHPvtZxhLTsQ24sQFhtI-52" style="edgeStyle=orthogonalEdgeStyle;rounded=0;orthogonalLoop=1;jettySize=auto;html=1;entryX=1;entryY=0.75;entryDx=0;entryDy=0;strokeWidth=3;" parent="1" source="cHPvtZxhLTsQ24sQFhtI-51" target="cHPvtZxhLTsQ24sQFhtI-32" edge="1">
          <mxGeometry relative="1" as="geometry">
            <mxPoint x="550" y="730" as="targetPoint" />
            <Array as="points">
              <mxPoint x="640" y="785" />
              <mxPoint x="640" y="730" />
            </Array>
          </mxGeometry>
        </mxCell>
        <mxCell id="cHPvtZxhLTsQ24sQFhtI-51" value="Youtube &amp;amp; Social infrluence&lt;br&gt;" style="ellipse;whiteSpace=wrap;html=1;fillColor=#f8cecc;strokeColor=#b85450;" parent="1" vertex="1">
          <mxGeometry x="655" y="745" width="120" height="80" as="geometry" />
        </mxCell>
        <mxCell id="l-d240GoZ30HzUqu10cJ-7" style="edgeStyle=orthogonalEdgeStyle;rounded=0;orthogonalLoop=1;jettySize=auto;html=1;entryX=0;entryY=0.5;entryDx=0;entryDy=0;strokeWidth=1;" edge="1" parent="1" source="l-d240GoZ30HzUqu10cJ-4" target="cHPvtZxhLTsQ24sQFhtI-23">
          <mxGeometry relative="1" as="geometry" />
        </mxCell>
        <mxCell id="l-d240GoZ30HzUqu10cJ-4" value="MBA" style="rounded=0;whiteSpace=wrap;html=1;strokeColor=#82B366;" vertex="1" parent="1">
          <mxGeometry x="45" y="100" width="120" height="60" as="geometry" />
        </mxCell>
      </root>
    </mxGraphModel>
  </diagram>
</mxfile>
